<?xml version="1.0" encoding="utf-8"?>
<!-- Generator: Adobe Illustrator 16.0.0, SVG Export Plug-In . SVG Version: 6.00 Build 0)  -->
<!DOCTYPE svg PUBLIC "-//W3C//DTD SVG 1.1//EN" "http://www.w3.org/Graphics/SVG/1.1/DTD/svg11.dtd">
<svg version="1.1" id="Layer_1" xmlns="http://www.w3.org/2000/svg" xmlns:xlink="http://www.w3.org/1999/xlink" x="0px" y="0px"
	 width="16px" height="16px" viewBox="0 0 16 16" enable-background="new 0 0 16 16" xml:space="preserve">
<path fill="#666666" d="M13,7H9V3c0-0.6-0.4-1-1-1C7.4,2,7,2.4,7,3v4H3C2.4,7,2,7.4,2,8c0,0.6,0.4,1,1,1h4v4c0,0.6,0.4,1,1,1
	c0.6,0,1-0.4,1-1V9h4c0.6,0,1-0.4,1-1C14,7.4,13.6,7,13,7z"/>
</svg>
