<?xml version="1.0" encoding="utf-8"?>
<!-- Generator: Adobe Illustrator 16.0.0, SVG Export Plug-In . SVG Version: 6.00 Build 0)  -->
<!DOCTYPE svg PUBLIC "-//W3C//DTD SVG 1.1//EN" "http://www.w3.org/Graphics/SVG/1.1/DTD/svg11.dtd">
<svg version="1.1" id="Layer_1" xmlns="http://www.w3.org/2000/svg" xmlns:xlink="http://www.w3.org/1999/xlink" x="0px" y="0px"
	 width="16px" height="16px" viewBox="0 0 16 16" style="enable-background:new 0 0 16 16;" xml:space="preserve">
<style type="text/css">
<![CDATA[
	.st0{fill-rule:evenodd;clip-rule:evenodd;fill:#DB3D44;}
	.st1{fill-rule:evenodd;clip-rule:evenodd;fill:#FFFFFF;}
]]>
</style>
<g>
	<circle class="st0" cx="8" cy="8" r="8"/>
	<path class="st1" d="M9.2,8l2.6-2.6c0.3-0.3,0.3-0.8,0-1.2c-0.3-0.3-0.8-0.3-1.2,0L8,6.8L5.4,4.2c-0.3-0.3-0.8-0.3-1.2,0
		c-0.3,0.3-0.3,0.8,0,1.2L6.8,8l-2.6,2.6c-0.3,0.3-0.3,0.8,0,1.2c0.3,0.3,0.8,0.3,1.2,0L8,9.2l2.6,2.6c0.3,0.3,0.8,0.3,1.2,0
		c0.3-0.3,0.3-0.8,0-1.2L9.2,8z"/>
</g>
</svg>
