<?xml version="1.0" encoding="utf-8"?>
<!-- Generator: Adobe Illustrator 21.0.2, SVG Export Plug-In . SVG Version: 6.00 Build 0)  -->
<svg version="1.1" id="Layer_1" xmlns="http://www.w3.org/2000/svg" xmlns:xlink="http://www.w3.org/1999/xlink" x="0px" y="0px"
	 width="16px" height="16px" viewBox="0 0 16 16" style="enable-background:new 0 0 16 16;" xml:space="preserve">
<style type="text/css">
	.st0{fill:#BBBBBB;}
	.st1{fill:#FFFFFF;}
</style>
<g>
	<path class="st0" d="M8,0C3.5,0,0,3.5,0,8s3.5,8,8,8s8-3.5,8-8S12.5,0,8,0z M7,4h2v2H7V4z M10,12H6v-1h1V8H6V7h1h2v4h1V12z"/>
	<polygon class="st1" points="9,7 7,7 6,7 6,8 7,8 7,11 6,11 6,12 10,12 10,11 9,11 	"/>
	<rect x="7" y="4" class="st1" width="2" height="2"/>
</g>
</svg>
