<?xml version="1.0" encoding="utf-8"?>
<!-- Generator: Adobe Illustrator 16.0.0, SVG Export Plug-In . SVG Version: 6.00 Build 0)  -->
<!DOCTYPE svg PUBLIC "-//W3C//DTD SVG 1.1//EN" "http://www.w3.org/Graphics/SVG/1.1/DTD/svg11.dtd">
<svg version="1.1" id="Layer_1" xmlns="http://www.w3.org/2000/svg" xmlns:xlink="http://www.w3.org/1999/xlink" x="0px" y="0px"
	 width="16px" height="16px" viewBox="0 0 16 16" enable-background="new 0 0 16 16" xml:space="preserve">
<path fill="#666666" d="M0.993,16.044h14c0.553,0,1-0.446,1-1v-0.586c-0.871-0.403-2.005-0.777-3.144-1.229
	c-1.947-0.77-2.41-1.035-2.41-1.035l-0.019-1.769c0,0,0.729-0.531,0.957-2.195c0.455,0.125,0.937-0.646,0.961-1.051
	c0.024-0.391-0.063-1.476-0.618-1.365c0.11-0.814,0.194-1.55,0.153-1.938c-0.146-1.42-1.623-2.92-3.895-2.92
	c-2.271,0-3.75,1.5-3.895,2.92c-0.04,0.391,0.043,1.125,0.157,1.94c-0.556-0.11-0.645,0.975-0.619,1.365
	c0.026,0.404,0.505,1.176,0.962,1.051C4.81,9.896,5.54,10.428,5.54,10.428l-0.019,1.769c0,0-0.462,0.268-2.409,1.035
	c-1.126,0.444-2.251,0.813-3.119,1.211v0.604C-0.007,15.598,0.44,16.044,0.993,16.044z"/>
</svg>
