<?xml version="1.0" encoding="utf-8"?>
<!-- Generator: Adobe Illustrator 21.0.0, SVG Export Plug-In . SVG Version: 6.00 Build 0)  -->
<svg version="1.1" id="Layer_1" xmlns="http://www.w3.org/2000/svg" xmlns:xlink="http://www.w3.org/1999/xlink" x="0px" y="0px"
	 viewBox="0 0 24 24" style="enable-background:new 0 0 24 24;" xml:space="preserve">
<style type="text/css">
	.st0{fill:#666666;}
</style>
<path class="st0" d="M18,13v-3c0-3-1.7-5-4.4-5.6C13.6,3.6,13,3,12.2,3c-0.8,0-1.4,0.6-1.4,1.4C7.9,5,6,7,6,10v3c-1,0-2,2-2,3v2h16
	v-2C20,15,19,13,18,13L18,13z"/>
<path class="st0" d="M15.1,19c0,1.7-1.3,3-3,3s-3-1.3-3-3H15.1z"/>
</svg>
